#N canvas 20 175 886 471 10;
#N canvas 2231 352 519 433 ADSR 0;
#X obj 10 10 cnv 15 265 200 empty empty ADSR 120 12 0 14 -162280 -66577
0;
#X obj 26 48 vsl 30 128 0 127 0 0 empty empty ATTACK -4 -9 0 10 -1
-262144 -1 0 1;
#X floatatom 26 188 5 0 0 0 - - -, f 5;
#X obj 96 48 vsl 30 128 0 127 0 0 empty empty DECAY 0 -9 0 10 -1 -262144
-1 0 1;
#X floatatom 96 188 5 0 0 0 - - -, f 5;
#X obj 164 48 vsl 30 128 0 127 0 0 empty empty SUSTAIN -5 -9 0 10 -1
-262144 -1 0 1;
#X floatatom 164 188 5 0 0 0 - - -, f 5;
#X obj 231 48 vsl 30 128 0 127 0 0 empty empty RELEASE -6 -9 0 10 -1
-262144 -1 0 1;
#X floatatom 231 188 5 0 0 0 - - -, f 5;
#X obj 25 218 ctlout 104;
#X obj 96 218 ctlout 105;
#X obj 163 220 ctlout 106;
#X obj 230 219 ctlout 107;
#X connect 1 0 2 0;
#X connect 2 0 9 0;
#X connect 3 0 4 0;
#X connect 4 0 10 0;
#X connect 5 0 6 0;
#X connect 6 0 11 0;
#X connect 7 0 8 0;
#X connect 8 0 12 0;
#X coords 0 -1 1 1 265 200 1 10 10;
#X restore 597 31 pd ADSR;
#N canvas 2939 438 450 309 MIXER 0;
#X obj 10 10 cnv 15 265 200 empty empty MIXER 115 12 0 14 -162280 -66577
0;
#X obj 47 45 vsl 30 128 0 127 0 0 empty empty OSC-1 -1 -9 0 10 -1 -262144
-1 12700 1;
#X obj 130 45 vsl 30 128 0 127 0 0 empty empty OSC-2 -1 -9 0 10 -1
-262144 -1 12700 1;
#X obj 210 45 vsl 30 128 0 127 0 0 empty empty NOISE -1 -9 0 10 -1
-262144 -1 0 1;
#X floatatom 210 185 5 0 0 0 - - -, f 5;
#X floatatom 130 186 5 0 0 0 - - -, f 5;
#X floatatom 47 186 5 0 0 0 - - -, f 5;
#X obj 46 215 ctlout 100;
#X obj 131 214 ctlout 101;
#X obj 211 214 ctlout 102;
#X connect 1 0 6 0;
#X connect 2 0 5 0;
#X connect 3 0 4 0;
#X connect 4 0 9 0;
#X connect 5 0 8 0;
#X connect 6 0 7 0;
#X coords 0 -1 1 1 265 200 1 10 10;
#X restore 321 31 pd MIXER;
#N canvas 2300 646 450 320 OSC 0;
#X obj 10 10 cnv 15 300 200 empty empty OSCILLATORS 100 12 0 14 -162280
-66577 0;
#X obj 248 65 vradio 20 1 0 5 empty empty OCTAVE -8 -8 0 10 -99865
-1 -1 3;
#X floatatom 248 225 5 0 0 0 - - -, f 5;
#X obj 248 255 ctlout 103;
#X text 268 67 +2;
#X text 268 147 -2;
#X text 268 128 -1;
#X text 274 108 0;
#X text 268 88 +1;
#X obj 347 149 midiout;
#X obj 347 92 midiin;
#X obj 119 65 vradio 20 1 0 4 empty empty OSC-2 -5 -8 0 10 -99865 -1
-1 2;
#X floatatom 119 225 5 0 0 0 - - -, f 5;
#X text 81 68 SINE;
#X text 78 129 PULSE;
#X text 83 88 TRI;
#X text 83 108 SAW;
#X obj 53 66 vradio 20 1 0 4 empty empty OSC-1 -5 -8 0 10 -99865 -1
-1 2;
#X floatatom 47 226 5 0 0 0 - - -, f 5;
#X obj 47 256 ctlout 108;
#X obj 119 255 ctlout 109;
#X obj 178 49 vsl 30 128 127 0 0 0 empty empty DETUNE -3 -9 0 10 -1
-262144 -1 11700 1;
#X floatatom 178 190 5 0 0 0 - - -, f 5;
#X obj 177 219 ctlout 110;
#X connect 1 0 2 0;
#X connect 2 0 3 0;
#X connect 10 0 9 0;
#X connect 11 0 12 0;
#X connect 12 0 20 0;
#X connect 17 0 18 0;
#X connect 18 0 19 0;
#X connect 21 0 22 0;
#X connect 22 0 23 0;
#X coords 0 -1 1 1 300 200 1 10 10;
#X restore 10 31 pd OSC;
#N canvas 808 267 450 446 MIXER 0;
#X obj 10 10 cnv 15 180 200 empty empty FILTER 66 12 0 14 -162280 -66577
0;
#X obj 43 45 vsl 30 128 0 127 0 0 empty empty FREQ 3 -9 0 10 -1 -262144
-1 0 1;
#X obj 126 45 vsl 30 128 0 127 0 0 empty empty RES 6 -9 0 10 -1 -262144
-1 0 1;
#X floatatom 126 186 5 0 0 0 - - -, f 5;
#X floatatom 43 186 5 0 0 0 - - -, f 5;
#X obj 42 215 ctlout 111;
#X obj 127 216 ctlout 112;
#X connect 1 0 4 0;
#X connect 2 0 3 0;
#X connect 3 0 6 0;
#X connect 4 0 5 0;
#X coords 0 -1 1 1 180 200 1 10 10;
#X restore 321 240 pd MIXER;
#N canvas 919 310 450 446 MIXER 0;
#X obj 10 10 cnv 15 70 200 empty empty BEND 19 12 0 14 -162280 -66577
0;
#X obj 30 45 vsl 30 128 1 12 0 0 empty empty SEMI 3 -9 0 10 -1 -262144
-1 0 1;
#X floatatom 30 186 5 0 0 0 - - -, f 5;
#X obj 29 225 ctlout 113;
#X obj 104 174 int;
#X connect 1 0 4 0;
#X connect 2 0 3 0;
#X connect 4 0 2 0;
#X coords 0 -1 1 1 70 200 1 10 10;
#X restore 515 240 pd MIXER;
#N canvas 1178 323 450 341 MIXER 0;
#X obj 10 10 cnv 15 300 200 empty empty LFO 138 12 0 14 -162280 -66577
0;
#X obj 41 45 vsl 30 128 0 127 0 0 empty empty SPEED -1 -9 0 10 -1 -262144
-1 0 1;
#X obj 105 45 vsl 30 128 0 127 0 0 empty empty DEPTH -1 -9 0 10 -1
-262144 -1 0 1;
#X floatatom 105 186 5 0 0 0 - - -, f 5;
#X floatatom 41 186 5 0 0 0 - - -, f 5;
#X obj 40 215 ctlout 114;
#X obj 106 215 ctlout 115;
#X obj 167 45 vradio 20 1 0 6 empty empty MODE -1 -8 0 10 -99865 -1
-1 0;
#X floatatom 242 245 5 0 0 0 - - -, f 5;
#X obj 242 269 ctlout 116;
#X obj 230 45 vradio 20 1 0 2 empty empty TYPE -1 -8 0 10 -99865 -1
-1 1;
#X text 254 68 PITCH;
#X text 254 47 FILTER;
#X text 192 68 FREE;
#X text 192 88 DOWN;
#X text 192 108 UP;
#X obj 242 223 +;
#X obj 335 171 * 8;
#X obj 336 130 bng 15 250 50 0 empty empty empty 17 7 0 10 -262144
-1 -1;
#X text 191 47 OFF;
#X text 192 129 1-DN;
#X text 192 148 1-UP;
#X connect 1 0 4 0;
#X connect 2 0 3 0;
#X connect 3 0 6 0;
#X connect 4 0 5 0;
#X connect 7 0 16 0;
#X connect 8 0 9 0;
#X connect 10 0 17 0;
#X connect 10 0 18 0;
#X connect 16 0 8 0;
#X connect 17 0 16 1;
#X connect 18 0 7 0;
#X coords 0 -1 1 1 300 200 1 10 10;
#X restore 10 240 pd MIXER;
#N canvas 1028 342 519 433 ADSR 0;
#X obj 10 10 cnv 15 265 200 empty empty empty 120 12 0 14 -162280 -66577
0;
#X coords 0 -1 1 1 265 200 1 10 10;
#X restore 597 240 pd ADSR;
